<?xml version="1.0" encoding="UTF-8"?>
<svg id="Layer_1" data-name="Layer 1" xmlns="http://www.w3.org/2000/svg" viewBox="0 0 500 201.98">
  <defs>
    <style>
      .cls-1, .cls-2 {
        fill: #010101;
      }

      .cls-2 {
        stroke: #010101;
        stroke-miterlimit: 10;
        stroke-width: .64px;
      }
    </style>
  </defs>
  <path class="cls-2" d="M25.68,188.87c-6.36,0-11.53-5.17-11.53-11.53v-14.9h1.35v14.9c0,5.61,4.57,10.18,10.18,10.18s10.18-4.57,10.18-10.18V92.03h1.35v85.32c0,6.36-5.17,11.53-11.53,11.53Z"/>
  <g>
    <path class="cls-2" d="M115.81,199.28c-.27,.36-.81,.63-1.26,.63h-16.81c-.18,0-.45-.27-.63-.36-.18-.18-.27-.36-.36-.54,0-.09-.18-.36-.18-.45l-2.34-12.41-.9-4.94h-7.1c-.9,0-1.62-.72-1.62-1.62s.72-1.62,1.62-1.62h8.27c.81-.09,1.71,.54,1.8,1.35l1.08,6.2,2.07,11.15h13.03l-7.37-30.74-12.67-52.68h-14.83l-12.58,52.77-7.37,30.65h13.12l4.49-24.72c.9-4.94,2.88-8,9.44-8h5.39l-5.03-27.24-3.51,19.06c-.18,.9-.99,1.44-1.89,1.26-.9-.18-1.53-.9-1.35-1.8l5.12-27.69c.09-.72,.81-1.26,1.62-1.26s1.44,.54,1.53,1.26l7.01,37.66v.72c0,.18-.27,.45-.36,.63-.09,.18-.36,.36-.54,.45-.18,.09-.36,.18-.54,.18h-7.1l-.18-.09-.18,.09c-4.49,0-5.57,1.26-6.29,5.39l-4.76,25.98c0,.09-.09,.36-.09,.45-.09,.18-.27,.45-.45,.54-.18,.18-.45,.36-.63,.36h-16.9c-.45,0-.99-.27-1.26-.63-.27-.36-.45-.9-.36-1.35l7.82-32.72,12.94-53.93c.18-.72,.9-1.26,1.62-1.26h17.35c.72,0,1.35,.54,1.53,1.26l13.03,53.93,7.82,32.72s0,.99-.27,1.35Z"/>
    <path class="cls-2" d="M192.31,111.64v86.65c0,.9-.72,1.62-1.62,1.62h-16.72c-.9,0-1.62-.72-1.62-1.62v-32.54c0-6.38,.09-9.35-3.15-13.12l-28.32-34.88c-.36-.36-.63-.81-.99-1.26-1.62-1.98-2.61-3.24-6.83-3.24h-4.85v83.42h12.76v-54.29c0-.18,0-.45,.09-.63,.09-.18,.27-.36,.45-.45,.18-.18,.45-.36,.63-.36,.09,0,.36-.09,.45-.09,.18,0,.45,.09,.63,.18s.45,.18,.54,.36v.09l14.47,17.8c.54,.72,.45,1.71-.27,2.25-.72,.54-1.71,.54-2.25-.18l-11.6-14.38v51.33c0,.9-.72,1.62-1.62,1.62h-15.91c-.9,0-1.62-.72-1.62-1.62V111.64c0-.9,.72-1.62,1.62-1.62h6.47c5.75,0,7.37,2.25,9.26,4.49,.27,.36,.63,.72,.99,1.08l28.41,34.97c3.87,4.67,3.87,8.63,3.87,15.19l-.09,1.89,.09,29.03h13.48V113.26h-4.67c-4.94,0-4.94-.09-6.47,2.43-1.26,1.98-9.35,15.55-9.44,15.64-.45,.72-1.44,.99-2.16,.54s-.99-1.44-.54-2.16c.36-.54,8.18-13.66,9.44-15.73,2.52-3.95,3.96-3.95,9.26-3.95h6.2c.9,0,1.62,.72,1.62,1.62Z"/>
    <path class="cls-2" d="M205.14,199.91c-.9,0-1.62-.72-1.62-1.62v-28.67c0-5.3,4.31-9.62,9.71-9.8h26.61v-11.24h-17.98c-.9,0-1.62-.72-1.62-1.62v-20.14c0-.9,.72-1.62,1.62-1.62h23.91v-11.95h-39.01v41.35c0,.9-.72,1.53-1.62,1.53s-1.62-.63-1.62-1.53v-42.97c0-.9,.72-1.62,1.62-1.62h42.25c.9,0,1.62,.72,1.62,1.62v15.19c0,.9-.72,1.62-1.62,1.62h-23.91v16.9h17.89c.9,0,1.62,.72,1.62,1.62v14.47c0,.9-.72,1.53-1.62,1.53h-27.78c-3.78,0-6.83,3.06-6.83,6.74v26.97h39.01v-11.95h-23.91c-.9,0-1.62-.72-1.62-1.62v-11.15c0-.9,.72-1.62,1.62-1.62s1.62,.72,1.62,1.62v9.53h23.91c.9,0,1.62,.72,1.62,1.62v15.19c0,.9-.72,1.62-1.62,1.62h-42.25Z"/>
    <path class="cls-2" d="M292.43,199.91c-.72,0-1.35-.45-1.53-1.17l-8.27-30.74h-2.97v30.29c0,.9-.63,1.62-1.53,1.62h-16.36c-.9,0-1.62-.72-1.62-1.62v-40.72c0-5.66,2.43-8.09,8.09-8.09h13.84c4.23,0,7.01-.72,7.01-11.69,0-7.73-1.98-10.88-7.01-10.88h-2.43v13.66c0,.9-.63,1.62-1.53,1.62s-1.62-.72-1.62-1.62v-15.28c0-.9,.72-1.62,1.62-1.62h3.95c10.25,0,10.25,10.61,10.25,14.11,0,10.97-2.79,14.92-10.25,14.92h-13.84c-3.87,0-4.85,.99-4.85,4.85v39.1h13.12v-30.38c0-.9,.72-1.62,1.62-1.62h5.75c.45,0,.81,.27,1.08,.54,.18,.18,.45,.54,.45,.81l8.27,30.65h14.11l-10.88-33.08c-.09-.18-.09-.45-.09-.72,0-.45,.36-.9,.72-1.17,.36-.18,.72-.54,1.08-.81,4.76-3.87,7.82-12.23,7.82-21.75,0-7.46-1.62-13.66-4.76-18.43-4.76-7.46-11.96-7.46-19.6-7.46h-18.7v29.48c0,.9-.72,1.62-1.62,1.62s-1.62-.72-1.62-1.62v-31.1c0-.9,.72-1.62,1.62-1.62h20.31c7.73,0,16.63,.09,22.29,8.99,3.51,5.3,5.3,12.05,5.3,20.14,0,10.61-3.42,19.69-8.99,24.27-.09,.09-.27,.18-.36,.27l11.24,34.16c.18,.45,0,.99-.27,1.44-.27,.45-.72,.63-1.26,.63h-17.62Z"/>
    <path class="cls-2" d="M324.48,199.91c-.9,0-1.62-.72-1.62-1.62v-60.05c0-8.18,4.58-9.26,8.45-9.26h1.98c.9,0,1.62,.72,1.62,1.62s-.72,1.62-1.62,1.62h-1.98c-3.15,0-5.21,.45-5.21,6.02v58.43h13.03V113.26h-13.03v8.18c0,.9-.72,1.62-1.62,1.62s-1.62-.72-1.62-1.62v-9.8c0-.9,.72-1.62,1.62-1.62h16.18c.9,0,1.62,.72,1.62,1.62v86.65c0,.9-.72,1.62-1.62,1.62h-16.18Z"/>
    <path class="cls-2" d="M385.06,201.26c-4.31,0-8.27-2.59-10.79-7.13-2.61-4.72-2.88-18.42-2.88-28.24v-9.44c0-8.06,.45-19.63,2.52-25.46,1.71-4.81,4.14-6.85,8.36-6.85h.09c6.92,0,7.46,10.09,7.73,19.35l14.38-1.2c-1.62-20-9.26-30.28-22.56-30.28-5.93,0-10.88,1.94-14.65,5.83-8.45,8.61-10.16,25.28-10.16,37.68,0,17.68,3.15,30,9.35,36.57,.63,.65,.54,1.76-.09,2.41-.63,.65-1.62,.56-2.25-.09-6.92-7.31-10.25-20.09-10.25-38.89,0-13.05,1.89-30.65,11.15-40.09,4.41-4.54,10.07-6.76,16.81-6.76h.18c10.79,0,24,6.11,25.89,35,0,.93-.63,1.67-1.53,1.76l-17.71,1.57c-.45,0-.81-.19-1.17-.46-.36-.28-.63-.74-.63-1.2v-.65c-.18-7.22-.54-17.13-4.58-17.13-2.52,0-3.95,.65-5.39,4.54-2.07,6.02-2.25,19.91-2.25,24.44v9.35c0,18.24,1.26,24.54,2.43,26.57,1.98,3.52,4.86,5.46,8.09,5.46h.09c14.65-.09,17.98-19.91,18.7-28.24l-14.02-1.02v1.39c-.09,5.09-.18,12.13-4.76,15.37-.72,.56-1.71,.28-2.25-.46-.54-.74-.36-1.76,.36-2.31,3.24-2.22,3.33-8.33,3.42-12.68,0-1.2,0-2.31,.09-3.24,.09-.93,.81-1.48,1.71-1.48l17.35,1.3c.9,0,1.44,.83,1.44,1.76-.45,7.68-3.5,32.96-22.11,32.96h-.09Z"/>
    <path class="cls-2" d="M474.09,199.28c-.27,.36-.81,.63-1.26,.63h-16.81c-.18,0-.45-.27-.63-.36-.18-.18-.27-.36-.36-.54,0-.09-.18-.36-.18-.45l-2.34-12.41-.9-4.94h-7.1c-.9,0-1.62-.72-1.62-1.62s.72-1.62,1.62-1.62h8.27c.81-.09,1.71,.54,1.8,1.35l1.08,6.2,2.07,11.15h13.03l-7.37-30.74-12.68-52.68h-14.83l-12.58,52.77-7.37,30.65h13.12l4.49-24.72c.9-4.94,2.88-8,9.44-8h5.39l-5.03-27.24-3.51,19.06c-.18,.9-.99,1.44-1.89,1.26-.9-.18-1.53-.9-1.35-1.8l5.12-27.69c.09-.72,.81-1.26,1.62-1.26s1.44,.54,1.53,1.26l7.01,37.66v.72c0,.18-.27,.45-.36,.63-.09,.18-.36,.36-.54,.45-.18,.09-.36,.18-.54,.18h-7.1l-.18-.09-.18,.09c-4.49,0-5.57,1.26-6.29,5.39l-4.76,25.98c0,.09-.09,.36-.09,.45-.09,.18-.27,.45-.45,.54-.18,.18-.45,.36-.63,.36h-16.9c-.45,0-.99-.27-1.26-.63-.27-.36-.45-.9-.36-1.35l7.82-32.72,12.94-53.93c.18-.72,.9-1.26,1.62-1.26h17.35c.72,0,1.35,.54,1.53,1.26l13.03,53.93,7.82,32.72s0,.99-.27,1.35Z"/>
  </g>
  <g>
    <path class="cls-2" d="M61.3,92.03c-.72,0-1.35-.45-1.53-1.17l-8.27-30.74h-2.97v30.29c0,.9-.63,1.62-1.53,1.62H30.65c-.9,0-1.62-.72-1.62-1.62V49.69c0-5.66,2.43-8.09,8.09-8.09h13.84c4.23,0,7.01-.72,7.01-11.69,0-7.73-1.98-10.88-7.01-10.88h-2.43v13.66c0,.9-.63,1.62-1.53,1.62s-1.62-.72-1.62-1.62v-15.28c0-.9,.72-1.62,1.62-1.62h3.95c10.25,0,10.25,10.61,10.25,14.11,0,10.97-2.79,14.92-10.25,14.92h-13.84c-3.87,0-4.85,.99-4.85,4.85v39.1h13.12v-30.38c0-.9,.72-1.62,1.62-1.62h5.75c.45,0,.81,.27,1.08,.54,.18,.18,.45,.54,.45,.81l8.27,30.65h14.11l-10.88-33.08c-.09-.18-.09-.45-.09-.72,0-.45,.36-.9,.72-1.17,.36-.18,.72-.54,1.08-.81,4.76-3.87,7.82-12.23,7.82-21.75,0-7.46-1.62-13.66-4.76-18.43-4.76-7.46-11.96-7.46-19.6-7.46h-18.7v29.48c0,.9-.72,1.62-1.62,1.62s-1.62-.72-1.62-1.62V3.75c0-.9,.72-1.62,1.62-1.62h20.31c7.73,0,16.63,.09,22.29,8.99,3.51,5.3,5.3,12.05,5.3,20.14,0,10.61-3.42,19.69-8.99,24.27-.09,.09-.27,.18-.36,.27l11.24,34.16c.18,.45,0,.99-.27,1.44-.27,.45-.72,.63-1.26,.63h-17.62Z"/>
    <path class="cls-2" d="M93.35,92.03c-.9,0-1.62-.72-1.62-1.62v-28.67c0-5.3,4.31-9.62,9.71-9.8h26.61v-11.24h-17.98c-.9,0-1.62-.72-1.62-1.62V18.94c0-.9,.72-1.62,1.62-1.62h23.91V5.37h-39.01V46.72c0,.9-.72,1.53-1.62,1.53s-1.62-.63-1.62-1.53V3.75c0-.9,.72-1.62,1.62-1.62h42.25c.9,0,1.62,.72,1.62,1.62v15.19c0,.9-.72,1.62-1.62,1.62h-23.91v16.9h17.89c.9,0,1.62,.72,1.62,1.62v14.47c0,.9-.72,1.53-1.62,1.53h-27.78c-3.78,0-6.83,3.06-6.83,6.74v26.97h39.01v-11.95h-23.91c-.9,0-1.62-.72-1.62-1.62v-11.15c0-.9,.72-1.62,1.62-1.62s1.62,.72,1.62,1.62v9.53h23.91c.9,0,1.62,.72,1.62,1.62v15.19c0,.9-.72,1.62-1.62,1.62h-42.25Z"/>
    <path class="cls-2" d="M236.91,4.02l-17.98,86.74c-.18,.72-.81,1.26-1.53,1.26h-7.82c-5.39-.27-8.81-4.58-10.7-13.03v-.09l-13.21-66.16-7.64,46.2c-.09,.81-.81,1.35-1.62,1.35s-1.53-.63-1.62-1.35l-10.07-53.57h-12.76l17.53,83.42h6.2c2.52,0,5.75-1.17,7.82-10.52l2.16-13.21c.09-.9,.9-1.44,1.8-1.35s1.44,.99,1.35,1.89l-2.16,13.3v.09c-1.98,8.9-5.39,13.03-10.97,13.03h-7.46c-.72,0-1.44-.54-1.62-1.26L148.37,4.11c-.09-.45,.09-.99,.36-1.35,.27-.36,.81-.63,1.26-.63h16.09c.81,0,1.44,.63,1.53,1.35l8.72,45.93,7.64-45.93c.09-.81,.72-1.35,1.53-1.35,.81-.09,1.53,.63,1.62,1.35l14.92,74.79c2.07,9.44,5.66,10.52,8.18,10.52h5.84L233.32,5.37h-12.67l-9.89,53.57c-.09,.72-.72,1.35-1.53,1.35s-1.53-.54-1.62-1.35l-8.81-54.92c-.09-.9,.45-1.8,1.35-1.89s1.71,.45,1.8,1.35l7.37,45.66L217.68,3.48c.09-.72,.81-1.35,1.62-1.35h16.09c.45,0,.9,.27,1.17,.63,.27,.36,.45,.81,.36,1.26Z"/>
    <path class="cls-2" d="M249.77,92.03c-.9,0-1.62-.72-1.62-1.62V30.36c0-8.18,4.58-9.26,8.45-9.26h1.98c.9,0,1.62,.72,1.62,1.62s-.72,1.62-1.62,1.62h-1.98c-3.15,0-5.21,.45-5.21,6.02v58.43h13.03V5.37h-13.03V13.55c0,.9-.72,1.62-1.62,1.62s-1.62-.72-1.62-1.62V3.75c0-.9,.72-1.62,1.62-1.62h16.18c.9,0,1.62,.72,1.62,1.62V90.41c0,.9-.72,1.62-1.62,1.62h-16.18Z"/>
    <path class="cls-2" d="M310.98,92.03c-.72,0-1.35-.45-1.53-1.17l-8.27-30.74h-2.97v30.29c0,.9-.63,1.62-1.53,1.62h-16.36c-.9,0-1.62-.72-1.62-1.62V49.69c0-5.66,2.43-8.09,8.09-8.09h13.84c4.23,0,7.01-.72,7.01-11.69,0-7.73-1.98-10.88-7.01-10.88h-2.43v13.66c0,.9-.63,1.62-1.53,1.62s-1.62-.72-1.62-1.62v-15.28c0-.9,.72-1.62,1.62-1.62h3.95c10.25,0,10.25,10.61,10.25,14.11,0,10.97-2.79,14.92-10.25,14.92h-13.84c-3.87,0-4.85,.99-4.85,4.85v39.1h13.12v-30.38c0-.9,.72-1.62,1.62-1.62h5.75c.45,0,.81,.27,1.08,.54,.18,.18,.45,.54,.45,.81l8.27,30.65h14.11l-10.88-33.08c-.09-.18-.09-.45-.09-.72,0-.45,.36-.9,.72-1.17,.36-.18,.72-.54,1.08-.81,4.76-3.87,7.82-12.23,7.82-21.75,0-7.46-1.62-13.66-4.76-18.43-4.76-7.46-11.96-7.46-19.6-7.46h-18.7v29.48c0,.9-.72,1.62-1.62,1.62s-1.62-.72-1.62-1.62V3.75c0-.9,.72-1.62,1.62-1.62h20.31c7.73,0,16.63,.09,22.29,8.99,3.51,5.3,5.3,12.05,5.3,20.14,0,10.61-3.42,19.69-8.99,24.27-.09,.09-.27,.18-.36,.27l11.24,34.16c.18,.45,0,.99-.27,1.44-.27,.45-.72,.63-1.26,.63h-17.62Z"/>
    <path class="cls-2" d="M343.03,92.03c-.9,0-1.62-.72-1.62-1.62V30.36c0-8.18,4.58-9.26,8.45-9.26h1.98c.9,0,1.62,.72,1.62,1.62s-.72,1.62-1.62,1.62h-1.98c-3.15,0-5.21,.45-5.21,6.02v58.43h13.03V5.37h-13.03V13.55c0,.9-.72,1.62-1.62,1.62s-1.62-.72-1.62-1.62V3.75c0-.9,.72-1.62,1.62-1.62h16.18c.9,0,1.62,.72,1.62,1.62V90.41c0,.9-.72,1.62-1.62,1.62h-16.18Z"/>
    <path class="cls-2" d="M375.21,5.37V88.79h13.48V34.85c0-.18,.09-.45,.18-.63,.09-.18,.27-.36,.45-.45,.18-.09,.36-.27,.54-.27h.63c.18,0,.45,.09,.63,.18,.18,.09,.36,.27,.45,.45l.18,.18,24.9,47.64,1.8,2.79c1.71,2.61,3.42,4.05,8.45,4.05h5.66c.9,0,1.53,.72,1.53,1.62s-.63,1.62-1.53,1.62h-5.66c-5.39,0-8.63-1.62-11.24-5.57l-1.8-2.79v-.09l-21.93-41.98v48.81c0,.9-.72,1.62-1.62,1.62h-16.72c-.45,0-.9-.18-1.17-.45-.27-.27-.45-.72-.45-1.17V3.75c0-.9,.72-1.62,1.62-1.62h12.77c5.84,0,8.45,2.52,10.79,6.65l33.8,61.22V5.37h-14.02V24.25c0,.9-.72,1.62-1.62,1.62s-1.62-.72-1.62-1.62V3.75c0-.9,.72-1.62,1.62-1.62h17.26c.9,0,1.53,.72,1.53,1.62V76.47c0,.18-.09,.45-.18,.63-.09,.18-.27,.36-.45,.45-.18,.09-.36,.27-.54,.27h-.54c-.18,0-.45-.09-.63-.18-.18-.09-.45-.27-.54-.45l-.09-.18L394.36,10.31c-1.98-3.51-3.6-4.94-8-4.94h-11.15Z"/>
    <path class="cls-2" d="M475.44,93.19c-4.22-.65-7.64-3.06-9.8-7.04-2.61-4.72-2.88-18.33-2.88-28.15v-9.44c0-8.06,.36-19.63,2.43-25.46,1.71-4.81,4.22-6.85,8.45-6.85h.09c6.92,0,7.46,10.09,7.73,19.35l14.38-1.2c-1.62-20-9.26-30.28-22.56-30.28-5.93,0-10.88,1.94-14.65,5.83-8.45,8.61-10.16,25.28-10.16,37.68,0,17.68,3.15,30,9.35,36.57,.63,.65,.54,1.67-.09,2.31s-1.62,.65-2.25,0c-6.92-7.31-10.25-20.09-10.25-38.89,0-13.05,1.89-30.65,11.15-40.09,4.41-4.54,10.07-6.76,16.9-6.76,10.79,0,24.09,6.11,25.98,35,0,.93-.63,1.67-1.53,1.76l-17.71,1.57c-.45,0-.81-.19-1.17-.46-.36-.28-.63-.74-.63-1.2v-.65c-.18-7.22-.54-17.22-4.58-17.22-2.52,0-4.05,.74-5.39,4.63-2.07,6.02-2.25,19.91-2.25,24.44v9.35c0,18.24,1.26,24.54,2.43,26.57,1.71,3.06,4.32,4.91,7.55,5.37,5.75,.83,12.22-2.59,15.82-6.2,3.96-3.98,4.22-5.37,4.22-5.55v-24.17l-17.53-1.76v5.28l3.51,.46c.81,.09,1.35,.83,1.35,1.67v20.55c0,.93-.72,1.67-1.62,1.67s-1.62-.74-1.62-1.67v-19.17l-3.42-.46c-.81-.09-1.44-.83-1.44-1.67v-8.52c0-.46,.18-1.02,.54-1.3s.81-.37,1.26-.37l20.67,2.13c.81,.09,1.53,.74,1.53,1.57v25.74c0,2.31-2.7,5.37-5.21,7.87-3.87,3.89-10.07,7.31-16.27,7.31-.72,0-1.62-.09-2.34-.18Z"/>
  </g>
  <path class="cls-2" d="M26.66,171.9H3c-1.2,0-2.17-.98-2.17-2.17v-23.66c0-1.2,.98-2.17,2.17-2.17H26.66c1.2,0,2.17,.97,2.17,2.17v23.66c0,1.2-.98,2.17-2.17,2.17ZM3,145.24c-.46,0-.83,.37-.83,.83v23.66c0,.46,.37,.83,.83,.83H26.66c.46,0,.83-.37,.83-.83v-23.66c0-.46-.37-.83-.83-.83H3Z"/>
  <circle class="cls-1" cx="14.83" cy="155.11" r="5.4"/>
  <rect class="cls-1" x="12.52" y="157.22" width="4.62" height="9.01" rx="1.09" ry="1.09"/>
</svg>
